<mxfile host="app.diagrams.net" modified="2023-05-12T06:18:36.331Z" agent="Mozilla/5.0 (Macintosh; Intel Mac OS X 10_15_7) AppleWebKit/537.36 (KHTML, like Gecko) Chrome/112.0.0.0 Safari/537.36" etag="QKjcg558hX6024WH0fRl" version="21.2.9" type="github">
  <diagram name="第 1 页" id="uwHExd9-VC8fvrQW-kaj">
    <mxGraphModel dx="954" dy="615" grid="1" gridSize="10" guides="1" tooltips="1" connect="1" arrows="1" fold="1" page="1" pageScale="1" pageWidth="827" pageHeight="1169" math="0" shadow="0">
      <root>
        <mxCell id="0" />
        <mxCell id="1" parent="0" />
        <mxCell id="OKMWDXngPsk2a8uxrAY7-10" style="rounded=0;orthogonalLoop=1;jettySize=auto;html=1;exitX=1;exitY=0.3333333333333333;exitDx=0;exitDy=0;exitPerimeter=0;entryX=0;entryY=0.5;entryDx=0;entryDy=0;" parent="1" source="OKMWDXngPsk2a8uxrAY7-6" target="OKMWDXngPsk2a8uxrAY7-3" edge="1">
          <mxGeometry relative="1" as="geometry" />
        </mxCell>
        <mxCell id="OKMWDXngPsk2a8uxrAY7-11" style="rounded=0;orthogonalLoop=1;jettySize=auto;html=1;exitX=1;exitY=0.3333333333333333;exitDx=0;exitDy=0;exitPerimeter=0;entryX=0;entryY=0.5;entryDx=0;entryDy=0;" parent="1" source="OKMWDXngPsk2a8uxrAY7-6" target="OKMWDXngPsk2a8uxrAY7-4" edge="1">
          <mxGeometry relative="1" as="geometry" />
        </mxCell>
        <mxCell id="OKMWDXngPsk2a8uxrAY7-12" style="rounded=0;orthogonalLoop=1;jettySize=auto;html=1;entryX=0;entryY=0.5;entryDx=0;entryDy=0;" parent="1" target="OKMWDXngPsk2a8uxrAY7-5" edge="1">
          <mxGeometry relative="1" as="geometry">
            <mxPoint x="110" y="230" as="sourcePoint" />
          </mxGeometry>
        </mxCell>
        <mxCell id="j4bABlCRm6YwdMvzKfa--4" style="rounded=0;orthogonalLoop=1;jettySize=auto;html=1;exitX=1;exitY=0.3333333333333333;exitDx=0;exitDy=0;exitPerimeter=0;entryX=0;entryY=0.5;entryDx=0;entryDy=0;" parent="1" source="OKMWDXngPsk2a8uxrAY7-6" target="j4bABlCRm6YwdMvzKfa--1" edge="1">
          <mxGeometry relative="1" as="geometry" />
        </mxCell>
        <mxCell id="j4bABlCRm6YwdMvzKfa--5" style="rounded=0;orthogonalLoop=1;jettySize=auto;html=1;exitX=1;exitY=0.3333333333333333;exitDx=0;exitDy=0;exitPerimeter=0;entryX=0;entryY=0.5;entryDx=0;entryDy=0;" parent="1" source="OKMWDXngPsk2a8uxrAY7-6" target="j4bABlCRm6YwdMvzKfa--2" edge="1">
          <mxGeometry relative="1" as="geometry" />
        </mxCell>
        <mxCell id="OKMWDXngPsk2a8uxrAY7-6" value="买家" style="shape=umlActor;verticalLabelPosition=bottom;verticalAlign=top;html=1;outlineConnect=0;" parent="1" vertex="1">
          <mxGeometry x="80" y="210" width="30" height="60" as="geometry" />
        </mxCell>
        <mxCell id="OKMWDXngPsk2a8uxrAY7-21" style="rounded=0;orthogonalLoop=1;jettySize=auto;html=1;exitX=1;exitY=0.3333333333333333;exitDx=0;exitDy=0;exitPerimeter=0;entryX=0;entryY=0.5;entryDx=0;entryDy=0;" parent="1" source="OKMWDXngPsk2a8uxrAY7-7" target="OKMWDXngPsk2a8uxrAY7-17" edge="1">
          <mxGeometry relative="1" as="geometry" />
        </mxCell>
        <mxCell id="OKMWDXngPsk2a8uxrAY7-22" style="rounded=0;orthogonalLoop=1;jettySize=auto;html=1;exitX=1;exitY=0.3333333333333333;exitDx=0;exitDy=0;exitPerimeter=0;entryX=0;entryY=0.5;entryDx=0;entryDy=0;" parent="1" source="OKMWDXngPsk2a8uxrAY7-7" target="OKMWDXngPsk2a8uxrAY7-19" edge="1">
          <mxGeometry relative="1" as="geometry" />
        </mxCell>
        <mxCell id="OKMWDXngPsk2a8uxrAY7-7" value="电商运营人员" style="shape=umlActor;verticalLabelPosition=bottom;verticalAlign=top;html=1;outlineConnect=0;" parent="1" vertex="1">
          <mxGeometry x="80" y="497.64" width="30" height="60" as="geometry" />
        </mxCell>
        <mxCell id="OKMWDXngPsk2a8uxrAY7-24" style="rounded=0;orthogonalLoop=1;jettySize=auto;html=1;exitX=0;exitY=0.3333333333333333;exitDx=0;exitDy=0;exitPerimeter=0;entryX=1;entryY=0.5;entryDx=0;entryDy=0;" parent="1" source="OKMWDXngPsk2a8uxrAY7-8" target="OKMWDXngPsk2a8uxrAY7-13" edge="1">
          <mxGeometry relative="1" as="geometry" />
        </mxCell>
        <mxCell id="OKMWDXngPsk2a8uxrAY7-25" style="rounded=0;orthogonalLoop=1;jettySize=auto;html=1;exitX=0;exitY=0.3333333333333333;exitDx=0;exitDy=0;exitPerimeter=0;entryX=1;entryY=0.5;entryDx=0;entryDy=0;" parent="1" source="OKMWDXngPsk2a8uxrAY7-8" target="OKMWDXngPsk2a8uxrAY7-14" edge="1">
          <mxGeometry relative="1" as="geometry" />
        </mxCell>
        <mxCell id="OKMWDXngPsk2a8uxrAY7-26" style="rounded=0;orthogonalLoop=1;jettySize=auto;html=1;exitX=0;exitY=0.3333333333333333;exitDx=0;exitDy=0;exitPerimeter=0;entryX=1;entryY=0.5;entryDx=0;entryDy=0;" parent="1" source="OKMWDXngPsk2a8uxrAY7-8" target="OKMWDXngPsk2a8uxrAY7-15" edge="1">
          <mxGeometry relative="1" as="geometry" />
        </mxCell>
        <mxCell id="OKMWDXngPsk2a8uxrAY7-27" style="rounded=0;orthogonalLoop=1;jettySize=auto;html=1;exitX=0;exitY=0.3333333333333333;exitDx=0;exitDy=0;exitPerimeter=0;entryX=1;entryY=0.5;entryDx=0;entryDy=0;" parent="1" source="OKMWDXngPsk2a8uxrAY7-8" target="OKMWDXngPsk2a8uxrAY7-16" edge="1">
          <mxGeometry relative="1" as="geometry" />
        </mxCell>
        <mxCell id="j4bABlCRm6YwdMvzKfa--7" style="rounded=0;orthogonalLoop=1;jettySize=auto;html=1;exitX=0;exitY=0.3333333333333333;exitDx=0;exitDy=0;exitPerimeter=0;entryX=1;entryY=0.5;entryDx=0;entryDy=0;" parent="1" source="OKMWDXngPsk2a8uxrAY7-8" target="j4bABlCRm6YwdMvzKfa--6" edge="1">
          <mxGeometry relative="1" as="geometry" />
        </mxCell>
        <mxCell id="OKMWDXngPsk2a8uxrAY7-8" value="卖家" style="shape=umlActor;verticalLabelPosition=bottom;verticalAlign=top;html=1;outlineConnect=0;" parent="1" vertex="1">
          <mxGeometry x="620" y="310" width="30" height="60" as="geometry" />
        </mxCell>
        <mxCell id="OKMWDXngPsk2a8uxrAY7-3" value="订单查询" style="ellipse;whiteSpace=wrap;html=1;container=0;" parent="1" vertex="1">
          <mxGeometry x="239.99666666666667" y="134.11529411764707" width="83.77777777777777" height="35.294117647058826" as="geometry" />
        </mxCell>
        <mxCell id="OKMWDXngPsk2a8uxrAY7-4" value="订单浏览" style="ellipse;whiteSpace=wrap;html=1;container=0;" parent="1" vertex="1">
          <mxGeometry x="239.99666666666667" y="210.00294117647056" width="83.77777777777777" height="35.294117647058826" as="geometry" />
        </mxCell>
        <mxCell id="OKMWDXngPsk2a8uxrAY7-5" value="订单签收" style="ellipse;whiteSpace=wrap;html=1;container=0;" parent="1" vertex="1">
          <mxGeometry x="239.99666666666667" y="280.0005882352941" width="83.77777777777777" height="35.294117647058826" as="geometry" />
        </mxCell>
        <mxCell id="OKMWDXngPsk2a8uxrAY7-13" value="商品发货" style="ellipse;whiteSpace=wrap;html=1;container=0;" parent="1" vertex="1">
          <mxGeometry x="409.99666666666667" y="199.99529411764706" width="83.77777777777777" height="35.294117647058826" as="geometry" />
        </mxCell>
        <mxCell id="OKMWDXngPsk2a8uxrAY7-14" value="物流管理" style="ellipse;whiteSpace=wrap;html=1;container=0;" parent="1" vertex="1">
          <mxGeometry x="409.99666666666667" y="274.70529411764704" width="83.77777777777777" height="35.294117647058826" as="geometry" />
        </mxCell>
        <mxCell id="OKMWDXngPsk2a8uxrAY7-15" value="退换订单" style="ellipse;whiteSpace=wrap;html=1;container=0;" parent="1" vertex="1">
          <mxGeometry x="409.99666666666667" y="349.99529411764706" width="83.77777777777777" height="35.294117647058826" as="geometry" />
        </mxCell>
        <mxCell id="OKMWDXngPsk2a8uxrAY7-16" value="订单结算" style="ellipse;whiteSpace=wrap;html=1;container=0;" parent="1" vertex="1">
          <mxGeometry x="409.99666666666667" y="419.99529411764706" width="83.77777777777777" height="35.294117647058826" as="geometry" />
        </mxCell>
        <mxCell id="OKMWDXngPsk2a8uxrAY7-17" value="订单审核" style="ellipse;whiteSpace=wrap;html=1;container=0;" parent="1" vertex="1">
          <mxGeometry x="239.99666666666667" y="470.0005882352941" width="83.77777777777777" height="35.294117647058826" as="geometry" />
        </mxCell>
        <mxCell id="OKMWDXngPsk2a8uxrAY7-19" value="订单结算" style="ellipse;whiteSpace=wrap;html=1;container=0;" parent="1" vertex="1">
          <mxGeometry x="239.99666666666667" y="538.9952941176471" width="83.77777777777777" height="35.294117647058826" as="geometry" />
        </mxCell>
        <mxCell id="j4bABlCRm6YwdMvzKfa--1" value="订单退换" style="ellipse;whiteSpace=wrap;html=1;container=0;" parent="1" vertex="1">
          <mxGeometry x="239.99666666666667" y="340.0005882352941" width="83.77777777777777" height="35.294117647058826" as="geometry" />
        </mxCell>
        <mxCell id="j4bABlCRm6YwdMvzKfa--2" value="物流查询" style="ellipse;whiteSpace=wrap;html=1;container=0;" parent="1" vertex="1">
          <mxGeometry x="239.99666666666667" y="400.0005882352941" width="83.77777777777777" height="35.294117647058826" as="geometry" />
        </mxCell>
        <mxCell id="j4bABlCRm6YwdMvzKfa--6" value="订单查询" style="ellipse;whiteSpace=wrap;html=1;container=0;" parent="1" vertex="1">
          <mxGeometry x="409.99666666666667" y="489.99529411764706" width="83.77777777777777" height="35.294117647058826" as="geometry" />
        </mxCell>
      </root>
    </mxGraphModel>
  </diagram>
</mxfile>
